# xmcd
#
# Track frame offsets:
#	150
#	16915
#	31707
#	43020
#	53910
#	74417
#	90402
#	104692
#	121687
#	146325
#	163317
#	177650
#	196595
#	212852
#	221927
#	232290
#	244534
#	245712
#	246832
#
# Disc length: 3452 seconds
#
# Revision: 1
# Processed by: cddbd v1.5.1PL0 Copyright (c) Steve Scherf et al.
# Submitted via: CDex 1.50Beta5
#
DISCID=180d7a13
DTITLE=横浜銀蠅 - ぶっちぎり総集編 壱
DYEAR=1900
DGENRE=Rock
TTITLE0=銀ばるRock'n Roll
TTITLE1=羯徒毘・薫'狼琉
TTITLE2=お前サラサラサーファー・ガール おいらテカテカロックンローラー
TTITLE3=いかしたDance Tonight
TTITLE4=渚のRock'n Roll
TTITLE5=Baby Cat
TTITLE6=Ike Ike 大好きロカビリー
TTITLE7=茶番劇Japan
TTITLE8=Band Men's Rock'n Roll
TTITLE9=業界馬鹿のロックン・ロール
TTITLE10=ヤンママRock'n Roll(自立編)
TTITLE11=とんでもないコギャルBoogie
TTITLE12=リーゼント ロックン・ローラー
TTITLE13=ぶっちぎりRock'n Roll
TTITLE14=つっぱりHigh School Rock'n Roll(登校編)
TTITLE15=つっぱりHigh School Rock'n Roll(試験編)
TTITLE16=尻取りRock'n Roll
TTITLE17=尻取りRock'n Roll(翔の好きなモノ編)
TTITLE18=横須賀Baby
EXTD=
EXTT0=
EXTT1=
EXTT2=
EXTT3=
EXTT4=
EXTT5=
EXTT6=
EXTT7=
EXTT8=
EXTT9=
EXTT10=
EXTT11=
EXTT12=
EXTT13=
EXTT14=
EXTT15=
EXTT16=
EXTT17=
EXTT18=
PLAYORDER=
